ffmpeg started on 2016-12-08 at 09:51:42
Report written to "Output/x264/results/ffmpeg/sintelveryslow500k.log"
Command line:
Tools/ffmpeg/ffmpeg -benchmark -y -i Input/y4m/sintel.y4m -c:v libx264 -preset veryslow -b:v 500k -an Output/x264/encoded/sintelveryslow500k.mkv
ffmpeg version N-82227-gdb23fde Copyright (c) 2000-2016 the FFmpeg developers
  built with gcc 5.4.0 (Ubuntu 5.4.0-6ubuntu1~16.04.2) 20160609
  configuration: --prefix=/home/jaroslav/ffmpeg_build --pkg-config-flags=--static --extra-cflags=-I/home/jaroslav/ffmpeg_build/include --extra-ldflags=-L/home/jaroslav/ffmpeg_build/lib --bindir=/home/jaroslav/bin --enable-gpl --enable-libass --enable-libfdk-aac --enable-libfreetype --enable-libmp3lame --enable-libopus --enable-libtheora --enable-libvorbis --enable-libvpx --enable-libx264 --enable-libx265 --enable-nvenc --enable-libmfx --enable-libxvid --enable-libgsm --enable-libopencore-amrnb --enable-version3 --enable-nonfree
  libavutil      55. 35.100 / 55. 35.100
  libavcodec     57. 66.101 / 57. 66.101
  libavformat    57. 57.100 / 57. 57.100
  libavdevice    57.  2.100 / 57.  2.100
  libavfilter     6. 66.100 /  6. 66.100
  libswscale      4.  3.100 /  4.  3.100
  libswresample   2.  4.100 /  2.  4.100
  libpostproc    54.  2.100 / 54.  2.100
Input #0, yuv4mpegpipe, from 'Input/y4m/sintel.y4m':
  Duration: 00:00:20.83, start: 0.000000, bitrate: 2057307 kb/s
    Stream #0:0: Video: rawvideo (I420 / 0x30323449), yuv420p(progressive), 4096x1744, SAR 1:1 DAR 256:109, 24 fps, 24 tbr, 24 tbn, 24 tbc
[libx264 @ 0x33fe1c0] using SAR=1/1
[libx264 @ 0x33fe1c0] DPB size (16 frames, 446464 mbs) > level limit (6 frames, 184320 mbs)
[libx264 @ 0x33fe1c0] using cpu capabilities: MMX2 SSE2Fast SSSE3 SSE4.2 AVX FMA3 AVX2 LZCNT BMI2
[libx264 @ 0x33fe1c0] profile High, level 5.2
[libx264 @ 0x33fe1c0] 264 - core 148 - H.264/MPEG-4 AVC codec - Copyleft 2003-2016 - http://www.videolan.org/x264.html - options: cabac=1 ref=16 deblock=1:0:0 analyse=0x3:0x133 me=umh subme=10 psy=1 psy_rd=1.00:0.00 mixed_ref=1 me_range=24 chroma_me=1 trellis=2 8x8dct=1 cqm=0 deadzone=21,11 fast_pskip=1 chroma_qp_offset=-2 threads=6 lookahead_threads=1 sliced_threads=0 nr=0 decimate=1 interlaced=0 bluray_compat=0 constrained_intra=0 bframes=8 b_pyramid=2 b_adapt=2 b_bias=0 direct=3 weightb=1 open_gop=0 weightp=2 keyint=250 keyint_min=24 scenecut=40 intra_refresh=0 rc_lookahead=60 rc=abr mbtree=1 bitrate=500 ratetol=1.0 qcomp=0.60 qpmin=0 qpmax=69 qpstep=4 ip_ratio=1.40 aq=1:1.00
Output #0, matroska, to 'Output/x264/encoded/sintelveryslow500k.mkv':
  Metadata:
    encoder         : Lavf57.57.100
    Stream #0:0: Video: h264 (libx264) (H264 / 0x34363248), yuv420p, 4096x1744 [SAR 1:1 DAR 256:109], q=-1--1, 500 kb/s, 24 fps, 1k tbn, 24 tbc
    Metadata:
      encoder         : Lavc57.66.101 libx264
    Side data:
      cpb: bitrate max/min/avg: 0/0/500000 buffer size: 0 vbv_delay: -1
Stream mapping:
  Stream #0:0 -> #0:0 (rawvideo (native) -> h264 (libx264))
Press [q] to stop, [?] for help
frame=   10 fps=0.0 q=0.0 size=       0kB time=00:00:00.00 bitrate=N/A speed=   0x    frame=   18 fps= 18 q=0.0 size=       0kB time=00:00:00.00 bitrate=N/A speed=   0x    frame=   26 fps= 17 q=0.0 size=       0kB time=00:00:00.00 bitrate=N/A speed=   0x    frame=   35 fps= 17 q=0.0 size=       0kB time=00:00:00.00 bitrate=N/A speed=   0x    frame=   46 fps= 18 q=0.0 size=       0kB time=00:00:00.00 bitrate=N/A speed=   0x    frame=   47 fps= 10 q=0.0 size=       0kB time=00:00:00.00 bitrate=N/A speed=   0x    frame=   48 fps=6.2 q=0.0 size=       0kB time=00:00:00.00 bitrate=N/A speed=   0x    frame=   49 fps=4.7 q=0.0 size=       0kB time=00:00:00.00 bitrate=N/A speed=   0x    frame=   53 fps=4.8 q=0.0 size=       0kB time=00:00:00.00 bitrate=N/A speed=   0x    frame=   56 fps=4.9 q=0.0 size=       0kB time=00:00:00.00 bitrate=N/A speed=   0x    frame=   61 fps=5.0 q=0.0 size=       0kB time=00:00:00.00 bitrate=N/A speed=   0x    frame=   72 fps=2.4 q=0.0 size=       0kB time=00:00:00.00 bitrate=N/A speed=   0x    frame=   76 fps=2.4 q=50.0 size=       1kB time=-00:00:00.08 bitrate=N/A speed=N/A    frame=   79 fps=2.4 q=55.0 size=       1kB time=00:00:00.04 bitrate= 136.9kbits/s speed=0.0013x    frame=   81 fps=2.4 q=60.0 size=       1kB time=00:00:00.12 bitrate=  46.7kbits/s speed=0.00373x    frame=   84 fps=2.4 q=63.0 size=       1kB time=00:00:00.25 bitrate=  23.5kbits/s speed=0.00719x    frame=   86 fps=2.4 q=65.0 size=       1kB time=00:00:00.33 bitrate=  17.6kbits/s speed=0.00936x    frame=   88 fps=2.4 q=65.0 size=       1kB time=00:00:00.41 bitrate=  14.1kbits/s speed=0.0115x    frame=   89 fps=2.4 q=66.0 size=       1kB time=00:00:00.45 bitrate=  12.8kbits/s speed=0.0124x    frame=   90 fps=2.4 q=68.0 size=       1kB time=00:00:00.50 bitrate=  11.8kbits/s speed=0.0133x    frame=   91 fps=2.3 q=69.0 size=       1kB time=00:00:00.54 bitrate=  10.8kbits/s speed=0.0139x    frame=   93 fps=2.3 q=69.0 size=       1kB time=00:00:00.62 bitrate=   9.4kbits/s speed=0.0155x    frame=   96 fps=2.3 q=69.0 size=       1kB time=00:00:00.75 bitrate=   7.8kbits/s speed=0.0179x    frame=   97 fps=2.2 q=69.0 size=       1kB time=00:00:00.79 bitrate=   7.4kbits/s speed=0.0183x    frame=   98 fps=2.2 q=69.0 size=       1kB time=00:00:00.83 bitrate=   7.1kbits/s speed=0.019x    frame=   99 fps=2.2 q=69.0 size=       1kB time=00:00:00.87 bitrate=   6.7kbits/s speed=0.0195x    frame=  100 fps=2.2 q=69.0 size=       1kB time=00:00:00.91 bitrate=   6.4kbits/s speed=0.0201x    frame=  102 fps=2.2 q=69.0 size=       1kB time=00:00:01.00 bitrate=   5.9kbits/s speed=0.0217x    frame=  104 fps=2.2 q=69.0 size=       1kB time=00:00:01.08 bitrate=   5.4kbits/s speed=0.023x    frame=  105 fps=2.2 q=69.0 size=       1kB time=00:00:01.12 bitrate=   5.2kbits/s speed=0.0234x    frame=  107 fps=2.2 q=69.0 size=       1kB time=00:00:01.20 bitrate=   4.9kbits/s speed=0.0245x    frame=  108 fps=2.1 q=69.0 size=       1kB time=00:00:01.25 bitrate=   4.7kbits/s speed=0.0249x    frame=  110 fps=2.1 q=69.0 size=       1kB time=00:00:01.33 bitrate=   4.4kbits/s speed=0.026x    frame=  111 fps=2.1 q=69.0 size=       1kB time=00:00:01.37 bitrate=   4.3kbits/s speed=0.0264x    frame=  112 fps=2.1 q=69.0 size=       1kB time=00:00:01.41 bitrate=   4.2kbits/s speed=0.0268x    frame=  113 fps=2.1 q=69.0 size=       1kB time=00:00:01.45 bitrate=   4.0kbits/s speed=0.0271x    frame=  114 fps=2.1 q=69.0 size=       1kB time=00:00:01.50 bitrate=   3.9kbits/s speed=0.0277x    frame=  115 fps=2.1 q=69.0 size=       1kB time=00:00:01.54 bitrate=   3.8kbits/s speed=0.028x    frame=  116 fps=2.1 q=69.0 size=       1kB time=00:00:01.58 bitrate=   3.7kbits/s speed=0.0285x    frame=  118 fps=2.1 q=69.0 size=       1kB time=00:00:01.66 bitrate=   3.5kbits/s speed=0.0296x    frame=  120 fps=2.1 q=69.0 size=       1kB time=00:00:01.75 bitrate=   3.4kbits/s speed=0.0307x    frame=  121 fps=2.1 q=69.0 size=       1kB time=00:00:01.79 bitrate=   3.3kbits/s speed=0.0311x    frame=  123 fps=2.1 q=69.0 size=       1kB time=00:00:01.87 bitrate=   3.1kbits/s speed=0.032x    frame=  124 fps=2.1 q=69.0 size=       1kB time=00:00:01.91 bitrate=   3.1kbits/s speed=0.0322x    frame=  126 fps=2.1 q=69.0 size=       1kB time=00:00:02.00 bitrate=   2.9kbits/s speed=0.0332x    frame=  127 fps=2.1 q=69.0 size=       1kB time=00:00:02.04 bitrate=   2.9kbits/s speed=0.0334x    frame=  128 fps=2.1 q=69.0 size=       1kB time=00:00:02.08 bitrate=   2.8kbits/s speed=0.0337x    frame=  129 fps=2.1 q=69.0 size=       1kB time=00:00:02.12 bitrate=   2.8kbits/s speed=0.034x    frame=  130 fps=2.1 q=69.0 size=       1kB time=00:00:02.16 bitrate=   2.7kbits/s speed=0.0343x    frame=  131 fps=2.0 q=69.0 size=       1kB time=00:00:02.20 bitrate=   2.7kbits/s speed=0.0345x    frame=  132 fps=2.0 q=69.0 size=       1kB time=00:00:02.25 bitrate=   2.6kbits/s speed=0.0348x    frame=  133 fps=2.0 q=69.0 size=       1kB time=00:00:02.29 bitrate=   2.6kbits/s speed=0.035x    frame=  134 fps=2.0 q=69.0 size=       1kB time=00:00:02.33 bitrate=   2.5kbits/s speed=0.0352x    frame=  135 fps=2.0 q=69.0 size=       1kB time=00:00:02.37 bitrate=   2.5kbits/s speed=0.0353x    frame=  136 fps=2.0 q=69.0 size=       1kB time=00:00:02.41 bitrate=   2.4kbits/s speed=0.0356x    frame=  137 fps=2.0 q=69.0 size=       1kB time=00:00:02.45 bitrate=   2.4kbits/s speed=0.0357x    frame=  138 fps=2.0 q=69.0 size=       1kB time=00:00:02.50 bitrate=   2.4kbits/s speed=0.0359x    frame=  139 fps=2.0 q=69.0 size=       1kB time=00:00:02.54 bitrate=   2.3kbits/s speed=0.0361x    frame=  140 fps=2.0 q=69.0 size=       1kB time=00:00:02.58 bitrate=   2.3kbits/s speed=0.0364x    frame=  142 fps=1.9 q=69.0 size=       1kB time=00:00:02.66 bitrate=   2.2kbits/s speed=0.0361x    frame=  144 fps=1.9 q=69.0 size=       1kB time=00:00:02.75 bitrate=   2.1kbits/s speed=0.0369x    frame=  146 fps=1.9 q=69.0 size=       1kB time=00:00:02.83 bitrate=   2.1kbits/s speed=0.0376x    frame=  148 fps=1.9 q=69.0 size=       1kB time=00:00:02.91 bitrate=   2.0kbits/s speed=0.0377x    frame=  149 fps=1.9 q=69.0 size=       1kB time=00:00:02.95 bitrate=   2.0kbits/s speed=0.0379x    frame=  150 fps=1.9 q=69.0 size=       1kB time=00:00:03.00 bitrate=   2.0kbits/s speed=0.0381x    frame=  151 fps=1.9 q=69.0 size=       1kB time=00:00:03.04 bitrate=   1.9kbits/s speed=0.0382x    frame=  153 fps=1.9 q=69.0 size=       1kB time=00:00:03.12 bitrate=   1.9kbits/s speed=0.0389x    frame=  154 fps=1.9 q=69.0 size=       1kB time=00:00:03.16 bitrate=   1.9kbits/s speed=0.0388x    frame=  155 fps=1.9 q=69.0 size=       1kB time=00:00:03.20 bitrate=   1.8kbits/s speed=0.0387x    frame=  157 fps=1.9 q=69.0 size=       1kB time=00:00:03.29 bitrate=   1.8kbits/s speed=0.0393x    frame=  158 fps=1.9 q=69.0 size=       1kB time=00:00:03.33 bitrate=   1.8kbits/s speed=0.0392x    frame=  159 fps=1.9 q=69.0 size=       1kB time=00:00:03.37 bitrate=   1.7kbits/s speed=0.0394x    frame=  160 fps=1.8 q=69.0 size=       1kB time=00:00:03.41 bitrate=   1.7kbits/s speed=0.0395x    frame=  161 fps=1.8 q=69.0 size=       1kB time=00:00:03.45 bitrate=   1.7kbits/s speed=0.0395x    frame=  162 fps=1.8 q=69.0 size=       1kB time=00:00:03.50 bitrate=   1.7kbits/s speed=0.0395x    frame=  163 fps=1.8 q=69.0 size=       1kB time=00:00:03.54 bitrate=   1.7kbits/s speed=0.0397x    frame=  164 fps=1.8 q=69.0 size=       1kB time=00:00:03.58 bitrate=   1.6kbits/s speed=0.0399x    frame=  165 fps=1.8 q=69.0 size=       1kB time=00:00:03.62 bitrate=   1.6kbits/s speed=0.0401x    frame=  166 fps=1.8 q=69.0 size=       1kB time=00:00:03.66 bitrate=   1.6kbits/s speed=0.04x    frame=  167 fps=1.8 q=69.0 size=       1kB time=00:00:03.70 bitrate=   1.6kbits/s speed=0.0402x    frame=  168 fps=1.8 q=69.0 size=       1kB time=00:00:03.75 bitrate=   1.6kbits/s speed=0.0404x    frame=  169 fps=1.8 q=69.0 size=       1kB time=00:00:03.79 bitrate=   1.6kbits/s speed=0.0405x    frame=  170 fps=1.8 q=69.0 size=       1kB time=00:00:03.83 bitrate=   1.5kbits/s speed=0.0407x    frame=  172 fps=1.8 q=69.0 size=       1kB time=00:00:03.91 bitrate=   1.5kbits/s speed=0.041x    frame=  175 fps=1.8 q=69.0 size=       1kB time=00:00:04.04 bitrate=   1.5kbits/s speed=0.0415x    frame=  176 fps=1.8 q=69.0 size=       1kB time=00:00:04.08 bitrate=   1.4kbits/s speed=0.0416x    frame=  178 fps=1.8 q=69.0 size=       1kB time=00:00:04.16 bitrate=   1.4kbits/s speed=0.0421x    frame=  182 fps=1.8 q=69.0 size=       1kB time=00:00:04.33 bitrate=   1.4kbits/s speed=0.0428x    frame=  186 fps=1.8 q=69.0 size=       1kB time=00:00:04.50 bitrate=   1.3kbits/s speed=0.0442x    frame=  188 fps=1.8 q=69.0 size=       1kB time=00:00:04.58 bitrate=   1.3kbits/s speed=0.0442x    frame=  189 fps=1.8 q=69.0 size=       1kB time=00:00:04.62 bitrate=   1.3kbits/s speed=0.0443x    frame=  191 fps=1.8 q=69.0 size=       1kB time=00:00:04.70 bitrate=   1.3kbits/s speed=0.0449x    frame=  192 fps=1.8 q=69.0 size=       1kB time=00:00:04.75 bitrate=   1.2kbits/s speed=0.0442x    frame=  196 fps=1.8 q=69.0 size=     996kB time=00:00:04.91 bitrate=1658.6kbits/s speed=0.0455x    frame=  199 fps=1.8 q=69.0 size=     996kB time=00:00:05.04 bitrate=1617.5kbits/s speed=0.0457x    frame=  201 fps=1.8 q=69.0 size=     996kB time=00:00:05.12 bitrate=1591.3kbits/s speed=0.046x    frame=  203 fps=1.8 q=69.0 size=     996kB time=00:00:05.20 bitrate=1566.0kbits/s speed=0.0462x    frame=  205 fps=1.8 q=69.0 size=     996kB time=00:00:05.29 bitrate=1541.1kbits/s speed=0.0466x    frame=  206 fps=1.8 q=69.0 size=     996kB time=00:00:05.33 bitrate=1529.3kbits/s speed=0.0467x    frame=  207 fps=1.8 q=69.0 size=     996kB time=00:00:05.37 bitrate=1517.3kbits/s speed=0.0465x    frame=  209 fps=1.8 q=69.0 size=     996kB time=00:00:05.45 bitrate=1494.3kbits/s speed=0.0468x    frame=  211 fps=1.8 q=69.0 size=     996kB time=00:00:05.54 bitrate=1471.6kbits/s speed=0.0472x    frame=  213 fps=1.8 q=69.0 size=     996kB time=00:00:05.62 bitrate=1449.9kbits/s speed=0.0473x    frame=  215 fps=1.8 q=69.0 size=     996kB time=00:00:05.70 bitrate=1428.8kbits/s speed=0.0477x    frame=  217 fps=1.8 q=69.0 size=     996kB time=00:00:05.79 bitrate=1408.1kbits/s speed=0.0481x    frame=  219 fps=1.8 q=69.0 size=     996kB time=00:00:05.87 bitrate=1388.2kbits/s speed=0.0481x    frame=  221 fps=1.8 q=69.0 size=     996kB time=00:00:05.95 bitrate=1368.9kbits/s speed=0.0484x    frame=  223 fps=1.8 q=69.0 size=     996kB time=00:00:06.04 bitrate=1349.9kbits/s speed=0.0487x    frame=  224 fps=1.8 q=69.0 size=     996kB time=00:00:06.08 bitrate=1340.8kbits/s speed=0.0487x    frame=  226 fps=1.8 q=69.0 size=     996kB time=00:00:06.16 bitrate=1322.5kbits/s speed=0.0491x    frame=  227 fps=1.8 q=69.0 size=     996kB time=00:00:06.20 bitrate=1313.8kbits/s speed=0.0491x    frame=  229 fps=1.8 q=69.0 size=     996kB time=00:00:06.29 bitrate=1296.2kbits/s speed=0.0495x    frame=  233 fps=1.8 q=69.0 size=     996kB time=00:00:06.45 bitrate=1262.9kbits/s speed=0.0492x    frame=  235 fps=1.8 q=69.0 size=     996kB time=00:00:06.54 bitrate=1246.7kbits/s speed=0.0497x    frame=  238 fps=1.8 q=69.0 size=     996kB time=00:00:06.66 bitrate=1223.3kbits/s speed=0.0502x    frame=  239 fps=1.8 q=69.0 size=     996kB time=00:00:06.70 bitrate=1215.9kbits/s speed=0.05x    frame=  240 fps=1.8 q=69.0 size=     996kB time=00:00:06.75 bitrate=1208.3kbits/s speed=0.0501x    frame=  241 fps=1.8 q=69.0 size=     996kB time=00:00:06.79 bitrate=1200.8kbits/s speed=0.0502x    frame=  242 fps=1.8 q=69.0 size=     996kB time=00:00:06.83 bitrate=1193.6kbits/s speed=0.0502x    frame=  244 fps=1.8 q=69.0 size=     996kB time=00:00:06.91 bitrate=1179.1kbits/s speed=0.0506x    frame=  245 fps=1.8 q=69.0 size=     996kB time=00:00:06.95 bitrate=1172.2kbits/s speed=0.0504x    frame=  247 fps=1.8 q=69.0 size=     996kB time=00:00:07.04 bitrate=1158.2kbits/s speed=0.0506x    frame=  249 fps=1.8 q=69.0 size=     996kB time=00:00:07.12 bitrate=1144.7kbits/s speed=0.0509x    frame=  250 fps=1.8 q=69.0 size=     996kB time=00:00:07.16 bitrate=1138.0kbits/s speed=0.0509x    frame=  251 fps=1.8 q=69.0 size=     996kB time=00:00:07.20 bitrate=1131.5kbits/s speed=0.0509x    frame=  253 fps=1.8 q=69.0 size=     996kB time=00:00:07.29 bitrate=1118.5kbits/s speed=0.051x    frame=  255 fps=1.8 q=69.0 size=     996kB time=00:00:07.37 bitrate=1105.9kbits/s speed=0.0513x    frame=  256 fps=1.8 q=69.0 size=     996kB time=00:00:07.41 bitrate=1099.6kbits/s speed=0.0514x    frame=  258 fps=1.8 q=69.0 size=     996kB time=00:00:07.50 bitrate=1087.5kbits/s speed=0.0517x    frame=  260 fps=1.8 q=69.0 size=     996kB time=00:00:07.58 bitrate=1075.6kbits/s speed=0.0515x    frame=  267 fps=1.8 q=69.0 size=     996kB time=00:00:07.87 bitrate=1035.7kbits/s speed=0.0527x    frame=  271 fps=1.8 q=69.0 size=     996kB time=00:00:08.04 bitrate=1014.2kbits/s speed=0.0536x    frame=  273 fps=1.8 q=69.0 size=     996kB time=00:00:08.12 bitrate=1003.8kbits/s speed=0.0536x    frame=  274 fps=1.8 q=69.0 size=     996kB time=00:00:08.16 bitrate= 998.7kbits/s speed=0.0535x    frame=  275 fps=1.8 q=69.0 size=     996kB time=00:00:08.20 bitrate= 993.7kbits/s speed=0.0535x    frame=  277 fps=1.8 q=69.0 size=     996kB time=00:00:08.29 bitrate= 983.6kbits/s speed=0.0538x    frame=  278 fps=1.8 q=69.0 size=     996kB time=00:00:08.33 bitrate= 978.8kbits/s speed=0.0538x    frame=  280 fps=1.8 q=69.0 size=     996kB time=00:00:08.41 bitrate= 969.0kbits/s speed=0.0542x    frame=  284 fps=1.8 q=69.0 size=     996kB time=00:00:08.58 bitrate= 950.3kbits/s speed=0.0546x    frame=  287 fps=1.8 q=69.0 size=     996kB time=00:00:08.70 bitrate= 936.6kbits/s speed=0.0551x    frame=  288 fps=1.8 q=69.0 size=     996kB time=00:00:08.75 bitrate= 932.1kbits/s speed=0.0552x    frame=  292 fps=1.8 q=69.0 size=     996kB time=00:00:08.91 bitrate= 914.7kbits/s speed=0.0558x    frame=  295 fps=1.8 q=69.0 size=     996kB time=00:00:09.04 bitrate= 902.0kbits/s speed=0.0564x    frame=  298 fps=1.8 q=69.0 size=     996kB time=00:00:09.16 bitrate= 889.7kbits/s speed=0.0568x    frame=  302 fps=1.9 q=69.0 size=     996kB time=00:00:09.33 bitrate= 873.9kbits/s speed=0.0575x    frame=  307 fps=1.9 q=69.0 size=     996kB time=00:00:09.54 bitrate= 854.8kbits/s speed=0.0585x    frame=  309 fps=1.9 q=69.0 size=     996kB time=00:00:09.62 bitrate= 847.4kbits/s speed=0.0586x    frame=  312 fps=1.9 q=69.0 size=     996kB time=00:00:09.75 bitrate= 836.5kbits/s speed=0.0592x    frame=  315 fps=1.9 q=69.0 size=     996kB time=00:00:09.87 bitrate= 826.0kbits/s speed=0.0596x    frame=  318 fps=1.9 q=69.0 size=    1775kB time=00:00:10.00 bitrate=1454.0kbits/s speed=0.0599x    frame=  320 fps=1.9 q=69.0 size=    1775kB time=00:00:10.08 bitrate=1442.0kbits/s speed=0.0602x    frame=  321 fps=1.9 q=66.0 size=    1775kB time=00:00:10.12 bitrate=1436.0kbits/s speed=0.0602x    frame=  324 fps=1.9 q=69.0 size=    1775kB time=00:00:10.25 bitrate=1418.5kbits/s speed=0.0606x    frame=  329 fps=1.9 q=69.0 size=    1810kB time=00:00:10.45 bitrate=1417.4kbits/s speed=0.0616x    frame=  331 fps=1.9 q=69.0 size=    1810kB time=00:00:10.54 bitrate=1406.1kbits/s speed=0.0619x    frame=  334 fps=2.0 q=69.0 size=    1810kB time=00:00:10.66 bitrate=1389.6kbits/s speed=0.0623x    frame=  337 fps=2.0 q=69.0 size=    1810kB time=00:00:10.79 bitrate=1373.5kbits/s speed=0.0627x    frame=  341 fps=2.0 q=69.0 size=    1810kB time=00:00:10.95 bitrate=1352.7kbits/s speed=0.0633x    frame=  344 fps=2.0 q=69.0 size=    1810kB time=00:00:11.08 bitrate=1337.5kbits/s speed=0.0637x    frame=  346 fps=2.0 q=69.0 size=    1810kB time=00:00:11.16 bitrate=1327.4kbits/s speed=0.0639x    frame=  349 fps=2.0 q=69.0 size=    1810kB time=00:00:11.29 bitrate=1312.7kbits/s speed=0.0643x    frame=  352 fps=2.0 q=69.0 size=    1810kB time=00:00:11.41 bitrate=1298.4kbits/s speed=0.0648x    frame=  353 fps=2.0 q=69.0 size=    1810kB time=00:00:11.45 bitrate=1293.7kbits/s speed=0.0648x    frame=  357 fps=2.0 q=69.0 size=    1810kB time=00:00:11.62 bitrate=1275.1kbits/s speed=0.0654x    frame=  360 fps=2.0 q=69.0 size=    1810kB time=00:00:11.75 bitrate=1261.6kbits/s speed=0.0658x    frame=  363 fps=2.0 q=69.0 size=    1810kB time=00:00:11.87 bitrate=1248.3kbits/s speed=0.0662x    frame=  367 fps=2.0 q=69.0 size=    1810kB time=00:00:12.04 bitrate=1231.0kbits/s speed=0.0667x    frame=  371 fps=2.0 q=69.0 size=    1810kB time=00:00:12.20 bitrate=1214.2kbits/s speed=0.0672x    frame=  376 fps=2.1 q=69.0 size=    1810kB time=00:00:12.41 bitrate=1193.8kbits/s speed=0.068x    frame=  377 fps=2.1 q=69.0 size=    1810kB time=00:00:12.45 bitrate=1189.9kbits/s speed=0.0679x    frame=  382 fps=2.1 q=69.0 size=    1810kB time=00:00:12.66 bitrate=1170.2kbits/s speed=0.0687x    frame=  383 fps=2.1 q=69.0 size=    1810kB time=00:00:12.70 bitrate=1166.5kbits/s speed=0.0685x    frame=  388 fps=2.1 q=69.0 size=    1810kB time=00:00:12.91 bitrate=1147.6kbits/s speed=0.0691x    frame=  393 fps=2.1 q=69.0 size=    1810kB time=00:00:13.12 bitrate=1129.4kbits/s speed=0.0698x    frame=  394 fps=2.1 q=69.0 size=    1810kB time=00:00:13.16 bitrate=1125.8kbits/s speed=0.0697x    frame=  399 fps=2.1 q=69.0 size=    1810kB time=00:00:13.37 bitrate=1108.3kbits/s speed=0.0702x    frame=  403 fps=2.1 q=69.0 size=    1810kB time=00:00:13.54 bitrate=1094.6kbits/s speed=0.0706x    frame=  408 fps=2.1 q=69.0 size=    1810kB time=00:00:13.75 bitrate=1078.1kbits/s speed=0.0711x    frame=  413 fps=2.1 q=69.0 size=    1810kB time=00:00:13.95 bitrate=1062.0kbits/s speed=0.0718x    frame=  414 fps=2.1 q=69.0 size=    1810kB time=00:00:14.00 bitrate=1058.8kbits/s speed=0.0716x    frame=  419 fps=2.1 q=69.0 size=    1810kB time=00:00:14.20 bitrate=1043.3kbits/s speed=0.0724x    frame=  420 fps=2.1 q=69.0 size=    1810kB time=00:00:14.25 bitrate=1040.3kbits/s speed=0.0722x    frame=  425 fps=2.1 q=69.0 size=    1810kB time=00:00:14.45 bitrate=1025.3kbits/s speed=0.0727x    frame=  430 fps=2.2 q=69.0 size=    1810kB time=00:00:14.66 bitrate=1010.7kbits/s speed=0.0734x    frame=  431 fps=2.1 q=69.0 size=    1810kB time=00:00:14.70 bitrate=1007.9kbits/s speed=0.0733x    frame=  434 fps=2.2 q=69.0 size=    1810kB time=00:00:14.83 bitrate= 999.4kbits/s speed=0.0735x    frame=  437 fps=2.2 q=69.0 size=    1810kB time=00:00:14.95 bitrate= 991.0kbits/s speed=0.0738x    frame=  439 fps=2.1 q=69.0 size=    1810kB time=00:00:15.04 bitrate= 985.5kbits/s speed=0.0736x    frame=  444 fps=2.2 q=69.0 size=    1810kB time=00:00:15.25 bitrate= 972.0kbits/s speed=0.0744x    frame=  446 fps=2.2 q=69.0 size=    2025kB time=00:00:15.33 bitrate=1081.9kbits/s speed=0.0745x    frame=  449 fps=2.2 q=69.0 size=    2025kB time=00:00:15.45 bitrate=1073.2kbits/s speed=0.0749x    frame=  450 fps=2.2 q=69.0 size=    2025kB time=00:00:15.50 bitrate=1070.3kbits/s speed=0.0749x    frame=  454 fps=2.2 q=69.0 size=    2025kB time=00:00:15.66 bitrate=1058.9kbits/s speed=0.0753x    frame=  459 fps=2.2 q=69.0 size=    2025kB time=00:00:15.87 bitrate=1045.0kbits/s speed=0.0757x    frame=  463 fps=2.2 q=69.0 size=    2025kB time=00:00:16.04 bitrate=1034.1kbits/s speed=0.076x    frame=  466 fps=2.2 q=69.0 size=    2025kB time=00:00:16.16 bitrate=1026.1kbits/s speed=0.0763x    frame=  468 fps=2.2 q=69.0 size=    2025kB time=00:00:16.25 bitrate=1020.9kbits/s speed=0.0764x    frame=  470 fps=2.2 q=69.0 size=    2025kB time=00:00:16.33 bitrate=1015.7kbits/s speed=0.0766x    frame=  473 fps=2.2 q=69.0 size=    2025kB time=00:00:16.45 bitrate=1008.0kbits/s speed=0.0768x    frame=  475 fps=2.2 q=69.0 size=    2025kB time=00:00:16.54 bitrate=1002.9kbits/s speed=0.0769x    frame=  476 fps=2.2 q=69.0 size=    2025kB time=00:00:16.58 bitrate=1000.4kbits/s speed=0.0769x    frame=  480 fps=2.2 q=69.0 size=    2025kB time=00:00:16.75 bitrate= 990.4kbits/s speed=0.0773x    frame=  484 fps=2.2 q=69.0 size=    2025kB time=00:00:16.91 bitrate= 980.6kbits/s speed=0.0776x    frame=  489 fps=2.2 q=69.0 size=    2025kB time=00:00:17.12 bitrate= 968.7kbits/s speed=0.078x    frame=  491 fps=2.2 q=69.0 size=    2025kB time=00:00:17.20 bitrate= 964.1kbits/s speed=0.0781x    frame=  494 fps=2.2 q=69.0 size=    2025kB time=00:00:17.33 bitrate= 957.1kbits/s speed=0.0777x    frame=  499 fps=2.2 q=69.0 size=    2025kB time=00:00:17.54 bitrate= 945.7kbits/s speed=0.0784x    frame=  500 fps=2.1 q=-1.0 Lsize=    2302kB time=00:00:20.70 bitrate= 910.7kbits/s speed=0.0873x    
video:2298kB audio:0kB subtitle:0kB other streams:0kB global headers:0kB muxing overhead: 0.187423%
bench: utime=710.132s
bench: maxrss=2812620kB
[libx264 @ 0x33fe1c0] frame I:3     Avg QP:48.59  size:  6039
[libx264 @ 0x33fe1c0] frame P:268   Avg QP:50.97  size:  8399
[libx264 @ 0x33fe1c0] frame B:229   Avg QP:50.92  size:   364
[libx264 @ 0x33fe1c0] consecutive B-frames: 36.2%  7.6% 18.0% 17.6% 11.0%  9.6%  0.0%  0.0%  0.0%
[libx264 @ 0x33fe1c0] mb I  I16..4: 41.5% 58.5%  0.0%
[libx264 @ 0x33fe1c0] mb P  I16..4: 13.6%  1.2%  0.0%  P16..4: 20.2%  0.0%  0.0%  0.0%  0.0%    skip:65.0%
[libx264 @ 0x33fe1c0] mb B  I16..4:  0.0%  0.0%  0.0%  B16..8:  0.7%  0.0%  0.0%  direct: 0.0%  skip:99.3%  L0:52.2% L1:47.5% BI: 0.3%
[libx264 @ 0x33fe1c0] final ratefactor: 68.50
[libx264 @ 0x33fe1c0] 8x8 transform intra:11.9% inter:100.0%
[libx264 @ 0x33fe1c0] direct mvs  spatial:99.1% temporal:0.9%
[libx264 @ 0x33fe1c0] coded y,uvDC,uvAC intra: 0.2% 0.7% 0.0% inter: 0.0% 0.0% 0.0%
[libx264 @ 0x33fe1c0] i16 v,h,dc,p: 96%  4%  1%  0%
[libx264 @ 0x33fe1c0] i8 v,h,dc,ddl,ddr,vr,hd,vl,hu: 23%  6% 70%  0%  0%  0%  0%  0%  0%
[libx264 @ 0x33fe1c0] i4 v,h,dc,ddl,ddr,vr,hd,vl,hu: 38% 21% 38%  0%  0%  0%  2%  2%  0%
[libx264 @ 0x33fe1c0] i8c dc,h,v,p: 100%  0%  0%  0%
[libx264 @ 0x33fe1c0] Weighted P-Frames: Y:1.5% UV:1.1%
[libx264 @ 0x33fe1c0] ref P L0: 19.5%  0.3% 21.3%  8.5%  7.7%  7.5%  7.9%  3.0%  3.1%  3.1%  3.1%  3.1%  3.1%  3.3%  3.7%  1.8%
[libx264 @ 0x33fe1c0] ref B L0: 73.9% 15.0%  6.1%  1.4%  1.3%  1.3%  0.6%  0.1%  0.1%  0.1%  0.1%  0.1%  0.0%  0.0%  0.0%
[libx264 @ 0x33fe1c0] ref B L1: 87.5% 12.5%
[libx264 @ 0x33fe1c0] kb/s:903.27
